<svg xmlns="http://www.w3.org/2000/svg" width="187.176" height="31.482" viewBox="0 0 187.176 31.482">
  <g id="Group_442" data-name="Group 442" transform="translate(-26 -22.259)">
    <path id="Path_13" data-name="Path 13" d="M254.808,27.019A1.984,1.984,0,1,1,256.793,29a1.95,1.95,0,0,1-1.985-1.983m3.63,0a1.643,1.643,0,1,0-1.645,1.639,1.613,1.613,0,0,0,1.645-1.639m-.79,1.106H257.3a.924.924,0,0,1-.051-.4v-.144c0-.295-.183-.339-.372-.339h-.523v.879h-.327V25.913h.828c.489,0,.728.211.728.633a.546.546,0,0,1-.417.55c.3.055.417.195.417.472v.178c0,.223.022.329.066.379m-.389-1.579c0-.211-.117-.356-.406-.356h-.5v.778h.489a.377.377,0,0,0,.417-.422" transform="translate(-45.601 15.223)" fill="#f2f2f2"/>
    <path id="Path_14" data-name="Path 14" d="M240.239,20.837a2.172,2.172,0,0,0-.951.992V20.7h-1.479v7.081h1.479v-3.2a2.952,2.952,0,0,1,.629-2.135,1.992,1.992,0,0,1,1.8-.457V20.62a2.382,2.382,0,0,0-1.475.217" transform="translate(-40.824 16.473)" fill="#f2f2f2"/>
    <path id="Path_15" data-name="Path 15" d="M248,26.013l-2.364-5.265h-1.608l3.238,6.922-1.319,3.115h1.519l4.31-10.037h-1.581Z" transform="translate(-42.571 16.429)" fill="#f2f2f2"/>
    <path id="Path_16" data-name="Path 16" d="M175.537,21.84a3.116,3.116,0,0,0-2.634-4.956h-4.687v9.858h1.526V23.084h2.488l2.407,3.658H176.4l-2.542-3.788a2.914,2.914,0,0,0,1.684-1.114m-5.8-.109V18.252h3.121a1.726,1.726,0,0,1,1.3.516,1.707,1.707,0,0,1,.5,1.23,1.679,1.679,0,0,1-.505,1.224,1.8,1.8,0,0,1-1.337.509Z" transform="translate(-21.269 17.515)" fill="#f2f2f2"/>
    <path id="Path_17" data-name="Path 17" d="M184.292,20.489a3.466,3.466,0,0,0-2.63,1.066,3.714,3.714,0,0,0-1.014,2.667,3.6,3.6,0,0,0,1.048,2.69,4.144,4.144,0,0,0,4.864.436,3.444,3.444,0,0,0,1.252-1.422l-1.347-.4a2.033,2.033,0,0,1-2.013,1.142,2.415,2.415,0,0,1-1.665-.551,2.072,2.072,0,0,1-.687-1.45h5.753a4.014,4.014,0,0,0,.048-.592,3.591,3.591,0,0,0-.965-2.568,3.471,3.471,0,0,0-2.644-1.02m-2.193,3.2a2.13,2.13,0,0,1,2.193-1.924,2.134,2.134,0,0,1,1.519.532,2.044,2.044,0,0,1,.64,1.378Z" transform="translate(-24.762 16.502)" fill="#f2f2f2"/>
    <path id="Path_18" data-name="Path 18" d="M195.959,21.816a2.133,2.133,0,0,1,1.275.391,1.761,1.761,0,0,1,.705.915l1.369-.392a2.888,2.888,0,0,0-1.135-1.557,3.605,3.605,0,0,0-2.233-.683,3.566,3.566,0,0,0-2.651,1.061,3.882,3.882,0,0,0,.011,5.316,3.9,3.9,0,0,0,4.883.4,2.867,2.867,0,0,0,1.125-1.536l-1.369-.378a1.624,1.624,0,0,1-.7.893,2.226,2.226,0,0,1-1.279.371,2.107,2.107,0,0,1-1.643-.711,2.448,2.448,0,0,1-.64-1.695,2.421,2.421,0,0,1,.637-1.7,2.129,2.129,0,0,1,1.646-.695" transform="translate(-28.02 16.501)" fill="#f2f2f2"/>
    <path id="Path_19" data-name="Path 19" d="M207.328,20.49a3.649,3.649,0,0,0-2.687,1.065,3.844,3.844,0,0,0,0,5.321,3.927,3.927,0,0,0,5.379,0,3.841,3.841,0,0,0,0-5.324,3.667,3.667,0,0,0-2.692-1.061M209,25.917a2.38,2.38,0,0,1-3.338,0,2.548,2.548,0,0,1,0-3.407,2.387,2.387,0,0,1,3.338,0,2.538,2.538,0,0,1,0,3.407" transform="translate(-31.204 16.501)" fill="#f2f2f2"/>
    <path id="Path_20" data-name="Path 20" d="M218.251,26.226l-2.206-5.479h-1.61l3,7.081h1.643l3-7.081h-1.6Z" transform="translate(-34.256 16.429)" fill="#f2f2f2"/>
    <path id="Path_21" data-name="Path 21" d="M229.259,20.489a3.465,3.465,0,0,0-2.629,1.066,3.717,3.717,0,0,0-1.014,2.667,3.6,3.6,0,0,0,1.048,2.69,4.143,4.143,0,0,0,4.863.436,3.447,3.447,0,0,0,1.251-1.422l-1.347-.4a2.032,2.032,0,0,1-2.013,1.142,2.416,2.416,0,0,1-1.665-.551,2.075,2.075,0,0,1-.687-1.45h5.753a4.025,4.025,0,0,0,.049-.592,3.586,3.586,0,0,0-.966-2.568,3.465,3.465,0,0,0-2.643-1.02m-2.193,3.2a2.276,2.276,0,0,1,3.712-1.392,2.043,2.043,0,0,1,.639,1.378Z" transform="translate(-37.398 16.502)" fill="#f2f2f2"/>
    <path id="Path_22" data-name="Path 22" d="M15.735,31.482c-1.936-3.4-5.7-10.02-5.707-10.029C6.674,19.536,3.366,17.662,0,15.735l10.029-5.707C11.947,6.674,13.82,3.366,15.748,0l5.706,10.029c3.354,1.918,6.663,3.791,10.029,5.719L21.454,21.454c-1.918,3.355-3.791,6.663-5.718,10.029M15.741,10.5a5.241,5.241,0,1,0,5.242,5.242A5.242,5.242,0,0,0,15.741,10.5" transform="translate(26 22.259)" fill="#f2f2f2"/>
    <path id="Path_23" data-name="Path 23" d="M7.751,12.478,12.379,7.85s-4.079-1.1-6.291-1.7c.592,2.23,1.663,6.329,1.663,6.329" transform="translate(24.289 20.531)" fill="#f2f2f2"/>
    <path id="Path_24" data-name="Path 24" d="M35.1,6.149l-6.291,1.7,4.627,4.627s1.072-4.1,1.663-6.329" transform="translate(17.905 20.531)" fill="#f2f2f2"/>
    <path id="Path_25" data-name="Path 25" d="M6.087,34.991l6.291-1.7L7.75,28.662s-1.071,4.1-1.663,6.329" transform="translate(24.29 14.205)" fill="#f2f2f2"/>
    <path id="Path_26" data-name="Path 26" d="M28.806,33.289l6.291,1.7c-.592-2.23-1.663-6.329-1.663-6.329Z" transform="translate(17.906 14.205)" fill="#f2f2f2"/>
    <path id="Path_27" data-name="Path 27" d="M154.248,13.554h-4.591V24.866h-3.416V13.554h-4.581V10.461h12.588Z" transform="translate(-13.806 19.319)" fill="#f2f2f2"/>
    <path id="Path_28" data-name="Path 28" d="M105.255,28.979l1.979-3.884,1.971,3.884Z" transform="translate(-3.577 15.207)" fill="#f2f2f2"/>
    <path id="Path_29" data-name="Path 29" d="M54.444,23.782a6.635,6.635,0,0,1-2.451-3.1l3.256-1a3.781,3.781,0,0,0,1.4,1.728,4,4,0,0,0,2.32.664,2.976,2.976,0,0,0,1.629-.4,1.146,1.146,0,0,0,.623-.955q0-.884-1.548-1.387l-3.706-1.145a5.32,5.32,0,0,1-2.406-1.462,3.294,3.294,0,0,1-.88-2.346,3.757,3.757,0,0,1,1.5-3.044A5.807,5.807,0,0,1,58,10.069a7.375,7.375,0,0,1,4.024,1.1,5.47,5.47,0,0,1,2.336,2.688l-3.144.923a3.3,3.3,0,0,0-1.286-1.245,3.768,3.768,0,0,0-1.889-.483,2.528,2.528,0,0,0-1.386.337.989.989,0,0,0-.523.849c0,.495.322.841.964,1.034l3.627,1.155a8.157,8.157,0,0,1,2.918,1.488,3.206,3.206,0,0,1,1.03,2.561,4.011,4.011,0,0,1-1.639,3.264,6.626,6.626,0,0,1-4.269,1.306,7.227,7.227,0,0,1-4.32-1.265" transform="translate(11.39 19.43)" fill="#f2f2f2"/>
    <path id="Path_30" data-name="Path 30" d="M105.049,16.411l-4.058,8H97.474l7.575-15.58,7.565,15.58H109.1Z" transform="translate(-1.39 19.778)" fill="#f2f2f2"/>
    <path id="Path_31" data-name="Path 31" d="M88.461,10.46V24.867H85.047v-8.44l-4.24,5.787-4.22-5.787v8.44H73.172V10.46h3.244l4.411,6.4,4.381-6.4Z" transform="translate(5.439 19.32)" fill="#f2f2f2"/>
    <path id="Path_32" data-name="Path 32" d="M127.685,20.136h-2.472v4.731h-3.376V10.461h7.2a4.883,4.883,0,0,1,3.693,1.471,4.762,4.762,0,0,1,1.411,3.392,4.7,4.7,0,0,1-.774,2.611A4.558,4.558,0,0,1,131.2,19.7l3.477,5.165h-3.929Zm-2.472-2.985h3.577a2.075,2.075,0,0,0,1.461-.532,1.74,1.74,0,0,0,.02-2.572,1.871,1.871,0,0,0-1.34-.532h-3.718Z" transform="translate(-8.236 19.319)" fill="#f2f2f2"/>
  </g>
</svg>
